# xmcd
#
# Track frame offsets:
#	150
#	3517
#	16777
#	23547
#	25932
#	44047
#	59805
#	61617
#	82032
#	98312
#	101727
#	109382
#	125282
#	128215
#	143235
#	164625
#	165052
#	183227
#	201070
#	202890
#	220347
#
# Disc length: 2980 seconds
#
# Revision: 0
# Processed by: cddbd v1.5.2PL0 Copyright (c) Steve Scherf et al.
# Submitted via: dBpowerAMP V4.0
#
DISCID=170ba215
DTITLE=Verbally Diseased Music - Operation Contamination
DYEAR=1900
DGENRE=
TTITLE0=Intro
TTITLE1=Inherit the Earth
TTITLE2=The Fabulous
TTITLE3=Still At Large
TTITLE4=The Chase(Co-Still)
TTITLE5=True Lies
TTITLE6=Help Us To Help You
TTITLE7=Daylight
TTITLE8=Ride with a G
TTITLE9=Shit was wild
TTITLE10=Streetsweepers
TTITLE11=Raw Defense
TTITLE12=10% Dis
TTITLE13=Amateur Nigh
TTITLE14=Villains Got Feelings
TTITLE15=Background Check
TTITLE16=Street Life
TTITLE17=1999
TTITLE18=Virus Breakdown
TTITLE19=Shakedown
TTITLE20=Put Out An Alert
EXTD=
EXTT0=
EXTT1=
EXTT2=
EXTT3=
EXTT4=
EXTT5=
EXTT6=
EXTT7=
EXTT8=
EXTT9=
EXTT10=
EXTT11=
EXTT12=
EXTT13=
EXTT14=
EXTT15=
EXTT16=
EXTT17=
EXTT18=
EXTT19=
EXTT20=
PLAYORDER=
